<svg id="Layer_1" data-name="Layer 1" xmlns="http://www.w3.org/2000/svg" viewBox="0 0 565.8 955.98"><defs><style>.cls-1{fill:#262727;}</style></defs><title>DottedPH-01</title><circle class="cls-1" cx="282.9" cy="6.52" r="6.52"/><circle class="cls-1" cx="282.9" cy="39.03" r="6.52"/><circle class="cls-1" cx="282.9" cy="87.81" r="6.52"/><circle class="cls-1" cx="250.38" cy="104.06" r="6.52"/><circle class="cls-1" cx="282.9" cy="120.32" r="6.52"/><circle class="cls-1" cx="250.38" cy="136.58" r="6.52"/><circle class="cls-1" cx="217.87" cy="152.84" r="6.52"/><circle class="cls-1" cx="234.13" cy="152.84" r="6.52"/><circle class="cls-1" cx="250.38" cy="152.84" r="6.52"/><circle class="cls-1" cx="299.16" cy="152.84" r="6.52"/><circle class="cls-1" cx="201.61" cy="169.09" r="6.52"/><circle class="cls-1" cx="217.87" cy="169.09" r="6.52"/><circle class="cls-1" cx="234.13" cy="169.09" r="6.52"/><circle class="cls-1" cx="250.38" cy="169.09" r="6.52"/><circle class="cls-1" cx="266.64" cy="169.09" r="6.52"/><circle class="cls-1" cx="282.9" cy="169.09" r="6.52"/><circle class="cls-1" cx="299.16" cy="169.09" r="6.52"/><circle class="cls-1" cx="201.61" cy="185.35" r="6.52"/><circle class="cls-1" cx="217.87" cy="185.35" r="6.52"/><circle class="cls-1" cx="234.13" cy="185.35" r="6.52"/><circle class="cls-1" cx="250.38" cy="185.35" r="6.52"/><circle class="cls-1" cx="266.64" cy="185.35" r="6.52"/><circle class="cls-1" cx="282.9" cy="185.35" r="6.52"/><circle class="cls-1" cx="299.16" cy="185.35" r="6.52"/><circle class="cls-1" cx="201.61" cy="201.61" r="6.52"/><circle class="cls-1" cx="217.87" cy="201.61" r="6.52"/><circle class="cls-1" cx="234.13" cy="201.61" r="6.52"/><circle class="cls-1" cx="250.38" cy="201.61" r="6.52"/><circle class="cls-1" cx="266.64" cy="201.61" r="6.52"/><circle class="cls-1" cx="282.9" cy="201.61" r="6.52"/><circle class="cls-1" cx="299.16" cy="201.61" r="6.52"/><circle class="cls-1" cx="201.61" cy="217.87" r="6.52"/><circle class="cls-1" cx="217.87" cy="217.87" r="6.52"/><circle class="cls-1" cx="234.13" cy="217.87" r="6.52"/><circle class="cls-1" cx="250.38" cy="217.87" r="6.52"/><circle class="cls-1" cx="266.64" cy="217.87" r="6.52"/><circle class="cls-1" cx="282.9" cy="217.87" r="6.52"/><circle class="cls-1" cx="299.16" cy="217.87" r="6.52"/><circle class="cls-1" cx="201.61" cy="234.13" r="6.52"/><circle class="cls-1" cx="217.87" cy="234.13" r="6.52"/><circle class="cls-1" cx="234.13" cy="234.13" r="6.52"/><circle class="cls-1" cx="250.38" cy="234.13" r="6.52"/><circle class="cls-1" cx="266.64" cy="234.13" r="6.52"/><circle class="cls-1" cx="282.9" cy="234.13" r="6.52"/><circle class="cls-1" cx="299.16" cy="234.13" r="6.52"/><circle class="cls-1" cx="315.41" cy="234.13" r="6.52"/><circle class="cls-1" cx="201.61" cy="250.38" r="6.52"/><circle class="cls-1" cx="217.87" cy="250.38" r="6.52"/><circle class="cls-1" cx="234.13" cy="250.38" r="6.52"/><circle class="cls-1" cx="250.38" cy="250.38" r="6.52"/><circle class="cls-1" cx="266.64" cy="250.38" r="6.52"/><circle class="cls-1" cx="282.9" cy="250.38" r="6.52"/><circle class="cls-1" cx="299.16" cy="250.38" r="6.52"/><circle class="cls-1" cx="315.41" cy="250.38" r="6.52"/><circle class="cls-1" cx="201.61" cy="266.64" r="6.52"/><circle class="cls-1" cx="217.87" cy="266.64" r="6.52"/><circle class="cls-1" cx="234.13" cy="266.64" r="6.52"/><circle class="cls-1" cx="250.38" cy="266.64" r="6.52"/><circle class="cls-1" cx="266.64" cy="266.64" r="6.52"/><circle class="cls-1" cx="282.9" cy="266.64" r="6.52"/><circle class="cls-1" cx="299.16" cy="266.64" r="6.52"/><circle class="cls-1" cx="169.09" cy="282.9" r="6.52"/><circle class="cls-1" cx="185.35" cy="282.9" r="6.52"/><circle class="cls-1" cx="201.61" cy="282.9" r="6.52"/><circle class="cls-1" cx="217.87" cy="282.9" r="6.52"/><circle class="cls-1" cx="234.13" cy="282.9" r="6.52"/><circle class="cls-1" cx="250.38" cy="282.9" r="6.52"/><circle class="cls-1" cx="266.64" cy="282.9" r="6.52"/><circle class="cls-1" cx="282.9" cy="282.9" r="6.52"/><circle class="cls-1" cx="299.16" cy="282.9" r="6.52"/><circle class="cls-1" cx="169.09" cy="299.16" r="6.52"/><circle class="cls-1" cx="185.35" cy="299.16" r="6.52"/><circle class="cls-1" cx="201.61" cy="299.16" r="6.52"/><circle class="cls-1" cx="217.87" cy="299.16" r="6.52"/><circle class="cls-1" cx="234.13" cy="299.16" r="6.52"/><circle class="cls-1" cx="250.38" cy="299.16" r="6.52"/><circle class="cls-1" cx="266.64" cy="299.16" r="6.52"/><circle class="cls-1" cx="282.9" cy="299.16" r="6.52"/><circle class="cls-1" cx="169.09" cy="315.41" r="6.52"/><circle class="cls-1" cx="185.35" cy="315.41" r="6.52"/><circle class="cls-1" cx="201.61" cy="315.41" r="6.52"/><circle class="cls-1" cx="217.87" cy="315.41" r="6.52"/><circle class="cls-1" cx="234.13" cy="315.41" r="6.52"/><circle class="cls-1" cx="250.38" cy="315.41" r="6.52"/><circle class="cls-1" cx="266.64" cy="315.41" r="6.52"/><circle class="cls-1" cx="169.09" cy="331.67" r="6.52"/><circle class="cls-1" cx="185.35" cy="331.67" r="6.52"/><circle class="cls-1" cx="201.61" cy="331.67" r="6.52"/><circle class="cls-1" cx="217.87" cy="331.67" r="6.52"/><circle class="cls-1" cx="234.13" cy="331.67" r="6.52"/><circle class="cls-1" cx="250.38" cy="331.67" r="6.52"/><circle class="cls-1" cx="266.64" cy="331.67" r="6.52"/><circle class="cls-1" cx="169.09" cy="347.93" r="6.52"/><circle class="cls-1" cx="185.35" cy="347.93" r="6.52"/><circle class="cls-1" cx="201.61" cy="347.93" r="6.52"/><circle class="cls-1" cx="217.87" cy="347.93" r="6.52"/><circle class="cls-1" cx="234.13" cy="347.93" r="6.52"/><circle class="cls-1" cx="250.38" cy="347.93" r="6.52"/><circle class="cls-1" cx="185.35" cy="364.19" r="6.52"/><circle class="cls-1" cx="201.61" cy="364.19" r="6.52"/><circle class="cls-1" cx="217.87" cy="364.19" r="6.52"/><circle class="cls-1" cx="234.13" cy="364.19" r="6.52"/><circle class="cls-1" cx="250.38" cy="364.19" r="6.52"/><circle class="cls-1" cx="282.9" cy="364.19" r="6.52"/><circle class="cls-1" cx="185.35" cy="380.44" r="6.52"/><circle class="cls-1" cx="201.61" cy="380.44" r="6.52"/><circle class="cls-1" cx="217.87" cy="380.44" r="6.52"/><circle class="cls-1" cx="234.13" cy="380.44" r="6.52"/><circle class="cls-1" cx="250.38" cy="380.44" r="6.52"/><circle class="cls-1" cx="266.64" cy="380.44" r="6.52"/><circle class="cls-1" cx="299.16" cy="380.44" r="6.52"/><circle class="cls-1" cx="315.41" cy="380.44" r="6.52"/><circle class="cls-1" cx="201.61" cy="396.7" r="6.52"/><circle class="cls-1" cx="234.13" cy="396.7" r="6.52"/><circle class="cls-1" cx="250.38" cy="396.7" r="6.52"/><circle class="cls-1" cx="266.64" cy="396.7" r="6.52"/><circle class="cls-1" cx="217.87" cy="412.96" r="6.52"/><circle class="cls-1" cx="234.13" cy="412.96" r="6.52"/><circle class="cls-1" cx="250.38" cy="412.96" r="6.52"/><circle class="cls-1" cx="266.64" cy="412.96" r="6.52"/><circle class="cls-1" cx="315.41" cy="412.96" r="6.52"/><circle class="cls-1" cx="331.67" cy="412.96" r="6.52"/><circle class="cls-1" cx="347.93" cy="412.96" r="6.52"/><circle class="cls-1" cx="217.87" cy="429.22" r="6.52"/><circle class="cls-1" cx="234.13" cy="429.22" r="6.52"/><circle class="cls-1" cx="250.38" cy="429.22" r="6.52"/><circle class="cls-1" cx="266.64" cy="429.22" r="6.52"/><circle class="cls-1" cx="282.9" cy="429.22" r="6.52"/><circle class="cls-1" cx="299.16" cy="429.22" r="6.52"/><circle class="cls-1" cx="315.41" cy="429.22" r="6.52"/><circle class="cls-1" cx="331.67" cy="429.22" r="6.52"/><circle class="cls-1" cx="347.93" cy="429.22" r="6.52"/><circle class="cls-1" cx="364.19" cy="429.22" r="6.52"/><circle class="cls-1" cx="380.44" cy="429.22" r="6.52"/><circle class="cls-1" cx="396.7" cy="429.22" r="6.52"/><circle class="cls-1" cx="412.96" cy="429.22" r="6.52"/><circle class="cls-1" cx="429.22" cy="429.22" r="6.52"/><circle class="cls-1" cx="185.35" cy="445.47" r="6.52"/><circle class="cls-1" cx="201.61" cy="445.47" r="6.52"/><circle class="cls-1" cx="234.13" cy="445.47" r="6.52"/><circle class="cls-1" cx="250.38" cy="445.47" r="6.52"/><circle class="cls-1" cx="299.16" cy="445.47" r="6.52"/><circle class="cls-1" cx="315.41" cy="445.47" r="6.52"/><circle class="cls-1" cx="347.93" cy="445.47" r="6.52"/><circle class="cls-1" cx="364.19" cy="445.47" r="6.52"/><circle class="cls-1" cx="380.44" cy="445.47" r="6.52"/><circle class="cls-1" cx="396.7" cy="445.47" r="6.52"/><circle class="cls-1" cx="412.96" cy="445.47" r="6.52"/><circle class="cls-1" cx="429.22" cy="445.47" r="6.52"/><circle class="cls-1" cx="201.61" cy="461.73" r="6.52"/><circle class="cls-1" cx="217.87" cy="461.73" r="6.52"/><circle class="cls-1" cx="234.13" cy="461.73" r="6.52"/><circle class="cls-1" cx="282.9" cy="461.73" r="6.52"/><circle class="cls-1" cx="299.16" cy="461.73" r="6.52"/><circle class="cls-1" cx="315.41" cy="461.73" r="6.52"/><circle class="cls-1" cx="331.67" cy="461.73" r="6.52"/><circle class="cls-1" cx="364.19" cy="461.73" r="6.52"/><circle class="cls-1" cx="380.44" cy="461.73" r="6.52"/><circle class="cls-1" cx="396.7" cy="461.73" r="6.52"/><path class="cls-1" d="M397.91,501.07h.37a6.59,6.59,0,1,0-.37,0Z" transform="translate(-180.3 -16.58)"/><circle class="cls-1" cx="234.13" cy="477.99" r="6.52"/><circle class="cls-1" cx="250.38" cy="477.99" r="6.52"/><circle class="cls-1" cx="347.93" cy="477.99" r="6.52"/><circle class="cls-1" cx="364.19" cy="477.99" r="6.52"/><circle class="cls-1" cx="380.44" cy="477.99" r="6.52"/><circle class="cls-1" cx="396.7" cy="477.99" r="6.52"/><circle class="cls-1" cx="412.96" cy="477.99" r="6.52"/><circle class="cls-1" cx="234.13" cy="494.25" r="6.52"/><circle class="cls-1" cx="250.38" cy="494.25" r="6.52"/><circle class="cls-1" cx="266.64" cy="494.25" r="6.52"/><circle class="cls-1" cx="282.9" cy="494.25" r="6.52"/><circle class="cls-1" cx="299.16" cy="494.25" r="6.52"/><circle class="cls-1" cx="364.19" cy="494.25" r="6.52"/><circle class="cls-1" cx="380.44" cy="494.25" r="6.52"/><circle class="cls-1" cx="396.7" cy="494.25" r="6.52"/><circle class="cls-1" cx="412.96" cy="494.25" r="6.52"/><path class="cls-1" d="M414.43,520.56a6.52,6.52,0,0,0-5.73,3.4,8.91,8.91,0,0,1-.41,5.29,6.52,6.52,0,1,0,6.14-8.69Z" transform="translate(-180.3 -16.58)"/><circle class="cls-1" cx="250.38" cy="510.5" r="6.52"/><circle class="cls-1" cx="266.64" cy="510.5" r="6.52"/><circle class="cls-1" cx="299.16" cy="510.5" r="6.52"/><circle class="cls-1" cx="364.19" cy="510.5" r="6.52"/><circle class="cls-1" cx="380.44" cy="510.5" r="6.52"/><circle class="cls-1" cx="396.7" cy="510.5" r="6.52"/><circle class="cls-1" cx="412.96" cy="510.5" r="6.52"/><circle class="cls-1" cx="429.22" cy="510.5" r="6.52"/><circle class="cls-1" cx="461.73" cy="510.5" r="6.52"/><circle class="cls-1" cx="477.99" cy="510.5" r="6.52"/><circle class="cls-1" cx="169.09" cy="526.76" r="6.52"/><circle class="cls-1" cx="234.13" cy="526.76" r="6.52"/><circle class="cls-1" cx="250.38" cy="526.76" r="6.52"/><circle class="cls-1" cx="282.9" cy="526.76" r="6.52"/><circle class="cls-1" cx="299.16" cy="526.76" r="6.52"/><circle class="cls-1" cx="315.41" cy="526.76" r="6.52"/><circle class="cls-1" cx="331.67" cy="526.76" r="6.52"/><circle class="cls-1" cx="364.19" cy="526.76" r="6.52"/><circle class="cls-1" cx="380.44" cy="526.76" r="6.52"/><circle class="cls-1" cx="396.7" cy="526.76" r="6.52"/><circle class="cls-1" cx="412.96" cy="526.76" r="6.52"/><circle class="cls-1" cx="429.22" cy="526.76" r="6.52"/><circle class="cls-1" cx="445.47" cy="526.76" r="6.52"/><circle class="cls-1" cx="461.73" cy="526.76" r="6.52"/><circle class="cls-1" cx="477.99" cy="526.76" r="6.52"/><circle class="cls-1" cx="169.09" cy="543.02" r="6.52"/><circle class="cls-1" cx="185.35" cy="543.02" r="6.52"/><circle class="cls-1" cx="250.38" cy="543.02" r="6.52"/><circle class="cls-1" cx="266.64" cy="543.02" r="6.52"/><circle class="cls-1" cx="282.9" cy="543.02" r="6.52"/><circle class="cls-1" cx="364.19" cy="543.02" r="6.52"/><circle class="cls-1" cx="380.44" cy="543.02" r="6.52"/><circle class="cls-1" cx="396.7" cy="543.02" r="6.52"/><circle class="cls-1" cx="412.96" cy="543.02" r="6.52"/><circle class="cls-1" cx="429.22" cy="543.02" r="6.52"/><circle class="cls-1" cx="445.47" cy="543.02" r="6.52"/><circle class="cls-1" cx="461.73" cy="543.02" r="6.52"/><circle class="cls-1" cx="477.99" cy="543.02" r="6.52"/><circle class="cls-1" cx="494.25" cy="543.02" r="6.52"/><circle class="cls-1" cx="169.09" cy="559.28" r="6.52"/><circle class="cls-1" cx="185.35" cy="559.28" r="6.52"/><circle class="cls-1" cx="266.64" cy="559.28" r="6.52"/><circle class="cls-1" cx="282.9" cy="559.28" r="6.52"/><circle class="cls-1" cx="299.16" cy="559.28" r="6.52"/><circle class="cls-1" cx="315.41" cy="559.28" r="6.52"/><circle class="cls-1" cx="412.96" cy="559.28" r="6.52"/><circle class="cls-1" cx="429.22" cy="559.28" r="6.52"/><circle class="cls-1" cx="445.47" cy="559.28" r="6.52"/><circle class="cls-1" cx="461.73" cy="559.28" r="6.52"/><circle class="cls-1" cx="477.99" cy="559.28" r="6.52"/><circle class="cls-1" cx="494.25" cy="559.28" r="6.52"/><circle class="cls-1" cx="169.09" cy="575.53" r="6.52"/><circle class="cls-1" cx="299.16" cy="575.53" r="6.52"/><circle class="cls-1" cx="315.41" cy="575.53" r="6.52"/><circle class="cls-1" cx="331.67" cy="575.53" r="6.52"/><circle class="cls-1" cx="347.93" cy="575.53" r="6.52"/><circle class="cls-1" cx="364.19" cy="575.53" r="6.52"/><circle class="cls-1" cx="412.96" cy="575.53" r="6.52"/><circle class="cls-1" cx="429.22" cy="575.53" r="6.52"/><circle class="cls-1" cx="445.47" cy="575.53" r="6.52"/><circle class="cls-1" cx="461.73" cy="575.53" r="6.52"/><circle class="cls-1" cx="477.99" cy="575.53" r="6.52"/><circle class="cls-1" cx="494.25" cy="575.53" r="6.52"/><circle class="cls-1" cx="136.58" cy="591.79" r="6.52"/><circle class="cls-1" cx="152.84" cy="591.79" r="6.52"/><circle class="cls-1" cx="299.16" cy="591.79" r="6.52"/><circle class="cls-1" cx="315.41" cy="591.79" r="6.52"/><circle class="cls-1" cx="331.67" cy="591.79" r="6.52"/><circle class="cls-1" cx="347.93" cy="591.79" r="6.52"/><circle class="cls-1" cx="396.7" cy="591.79" r="6.52"/><circle class="cls-1" cx="412.96" cy="591.79" r="6.52"/><circle class="cls-1" cx="429.22" cy="591.79" r="6.52"/><circle class="cls-1" cx="445.47" cy="591.79" r="6.52"/><circle class="cls-1" cx="461.73" cy="591.79" r="6.52"/><circle class="cls-1" cx="477.99" cy="591.79" r="6.52"/><circle class="cls-1" cx="494.25" cy="591.79" r="6.52"/><circle class="cls-1" cx="510.5" cy="591.79" r="6.52"/><circle class="cls-1" cx="136.58" cy="608.05" r="6.52"/><circle class="cls-1" cx="152.84" cy="608.05" r="6.52"/><circle class="cls-1" cx="234.13" cy="608.05" r="6.52"/><circle class="cls-1" cx="299.16" cy="608.05" r="6.52"/><circle class="cls-1" cx="315.41" cy="608.05" r="6.52"/><circle class="cls-1" cx="331.67" cy="608.05" r="6.52"/><circle class="cls-1" cx="347.93" cy="608.05" r="6.52"/><circle class="cls-1" cx="364.19" cy="608.05" r="6.52"/><circle class="cls-1" cx="412.96" cy="608.05" r="6.52"/><circle class="cls-1" cx="429.22" cy="608.05" r="6.52"/><circle class="cls-1" cx="445.47" cy="608.05" r="6.52"/><circle class="cls-1" cx="461.73" cy="608.05" r="6.52"/><circle class="cls-1" cx="510.5" cy="608.05" r="6.52"/><circle class="cls-1" cx="136.58" cy="624.31" r="6.52"/><circle class="cls-1" cx="152.84" cy="624.31" r="6.52"/><circle class="cls-1" cx="169.09" cy="624.31" r="6.52"/><circle class="cls-1" cx="299.16" cy="624.31" r="6.52"/><circle class="cls-1" cx="315.41" cy="624.31" r="6.52"/><circle class="cls-1" cx="347.93" cy="624.31" r="6.52"/><circle class="cls-1" cx="364.19" cy="624.31" r="6.52"/><circle class="cls-1" cx="380.44" cy="624.31" r="6.52"/><circle class="cls-1" cx="396.7" cy="624.31" r="6.52"/><circle class="cls-1" cx="412.96" cy="624.31" r="6.52"/><circle class="cls-1" cx="429.22" cy="624.31" r="6.52"/><circle class="cls-1" cx="461.73" cy="624.31" r="6.52"/><circle class="cls-1" cx="477.99" cy="624.31" r="6.52"/><circle class="cls-1" cx="510.5" cy="624.31" r="6.52"/><circle class="cls-1" cx="120.32" cy="640.56" r="6.52"/><circle class="cls-1" cx="136.58" cy="640.56" r="6.52"/><circle class="cls-1" cx="152.84" cy="640.56" r="6.52"/><circle class="cls-1" cx="169.09" cy="640.56" r="6.52"/><circle class="cls-1" cx="331.67" cy="640.56" r="6.52"/><circle class="cls-1" cx="347.93" cy="640.56" r="6.52"/><circle class="cls-1" cx="364.19" cy="640.56" r="6.52"/><circle class="cls-1" cx="380.44" cy="640.56" r="6.52"/><circle class="cls-1" cx="396.7" cy="640.56" r="6.52"/><circle class="cls-1" cx="412.96" cy="640.56" r="6.52"/><circle class="cls-1" cx="461.73" cy="640.56" r="6.52"/><circle class="cls-1" cx="104.06" cy="656.82" r="6.52"/><circle class="cls-1" cx="120.32" cy="656.82" r="6.52"/><circle class="cls-1" cx="347.93" cy="656.82" r="6.52"/><circle class="cls-1" cx="364.19" cy="656.82" r="6.52"/><circle class="cls-1" cx="380.44" cy="656.82" r="6.52"/><circle class="cls-1" cx="396.7" cy="656.82" r="6.52"/><circle class="cls-1" cx="412.96" cy="656.82" r="6.52"/><circle class="cls-1" cx="429.22" cy="656.82" r="6.52"/><circle class="cls-1" cx="477.99" cy="656.82" r="6.52"/><circle class="cls-1" cx="494.25" cy="656.82" r="6.52"/><circle class="cls-1" cx="510.5" cy="656.82" r="6.52"/><circle class="cls-1" cx="87.81" cy="673.08" r="6.52"/><circle class="cls-1" cx="104.06" cy="673.08" r="6.52"/><circle class="cls-1" cx="299.16" cy="673.08" r="6.52"/><circle class="cls-1" cx="315.41" cy="673.08" r="6.52"/><circle class="cls-1" cx="331.67" cy="673.08" r="6.52"/><circle class="cls-1" cx="347.93" cy="673.08" r="6.52"/><circle class="cls-1" cx="364.19" cy="673.08" r="6.52"/><circle class="cls-1" cx="380.44" cy="673.08" r="6.52"/><circle class="cls-1" cx="396.7" cy="673.08" r="6.52"/><circle class="cls-1" cx="412.96" cy="673.08" r="6.52"/><circle class="cls-1" cx="429.22" cy="673.08" r="6.52"/><circle class="cls-1" cx="445.47" cy="673.08" r="6.52"/><circle class="cls-1" cx="494.25" cy="673.08" r="6.52"/><circle class="cls-1" cx="510.5" cy="673.08" r="6.52"/><circle class="cls-1" cx="526.76" cy="673.08" r="6.52"/><circle class="cls-1" cx="71.55" cy="689.34" r="6.52"/><circle class="cls-1" cx="87.81" cy="689.34" r="6.52"/><circle class="cls-1" cx="299.16" cy="689.34" r="6.52"/><circle class="cls-1" cx="315.41" cy="689.34" r="6.52"/><circle class="cls-1" cx="331.67" cy="689.34" r="6.52"/><circle class="cls-1" cx="347.93" cy="689.34" r="6.52"/><circle class="cls-1" cx="364.19" cy="689.34" r="6.52"/><circle class="cls-1" cx="380.44" cy="689.34" r="6.52"/><circle class="cls-1" cx="396.7" cy="689.34" r="6.52"/><circle class="cls-1" cx="412.96" cy="689.34" r="6.52"/><circle class="cls-1" cx="429.22" cy="689.34" r="6.52"/><circle class="cls-1" cx="494.25" cy="689.34" r="6.52"/><circle class="cls-1" cx="510.5" cy="689.34" r="6.52"/><circle class="cls-1" cx="526.76" cy="689.34" r="6.52"/><circle class="cls-1" cx="55.29" cy="705.59" r="6.52"/><circle class="cls-1" cx="71.55" cy="705.59" r="6.52"/><circle class="cls-1" cx="347.93" cy="705.59" r="6.52"/><circle class="cls-1" cx="364.19" cy="705.59" r="6.52"/><circle class="cls-1" cx="445.47" cy="705.59" r="6.52"/><circle class="cls-1" cx="494.25" cy="705.59" r="6.52"/><circle class="cls-1" cx="510.5" cy="705.59" r="6.52"/><circle class="cls-1" cx="526.76" cy="705.59" r="6.52"/><circle class="cls-1" cx="39.03" cy="721.85" r="6.52"/><circle class="cls-1" cx="55.29" cy="721.85" r="6.52"/><circle class="cls-1" cx="347.93" cy="721.85" r="6.52"/><circle class="cls-1" cx="380.44" cy="721.85" r="6.52"/><circle class="cls-1" cx="461.73" cy="721.85" r="6.52"/><circle class="cls-1" cx="477.99" cy="721.85" r="6.52"/><circle class="cls-1" cx="494.25" cy="721.85" r="6.52"/><circle class="cls-1" cx="510.5" cy="721.85" r="6.52"/><circle class="cls-1" cx="526.76" cy="721.85" r="6.52"/><circle class="cls-1" cx="543.02" cy="721.85" r="6.52"/><circle class="cls-1" cx="22.78" cy="738.11" r="6.52"/><circle class="cls-1" cx="39.03" cy="738.11" r="6.52"/><circle class="cls-1" cx="461.73" cy="738.11" r="6.52"/><circle class="cls-1" cx="477.99" cy="738.11" r="6.52"/><circle class="cls-1" cx="494.25" cy="738.11" r="6.52"/><circle class="cls-1" cx="510.5" cy="738.11" r="6.52"/><circle class="cls-1" cx="526.76" cy="738.11" r="6.52"/><circle class="cls-1" cx="543.02" cy="738.11" r="6.52"/><circle class="cls-1" cx="6.52" cy="754.37" r="6.52"/><circle class="cls-1" cx="22.78" cy="754.37" r="6.52"/><circle class="cls-1" cx="347.93" cy="754.37" r="6.52"/><circle class="cls-1" cx="364.19" cy="754.37" r="6.52"/><circle class="cls-1" cx="380.44" cy="754.37" r="6.52"/><circle class="cls-1" cx="396.7" cy="754.37" r="6.52"/><circle class="cls-1" cx="429.22" cy="754.37" r="6.52"/><circle class="cls-1" cx="445.47" cy="754.37" r="6.52"/><circle class="cls-1" cx="461.73" cy="754.37" r="6.52"/><circle class="cls-1" cx="477.99" cy="754.37" r="6.52"/><circle class="cls-1" cx="494.25" cy="754.37" r="6.52"/><circle class="cls-1" cx="510.5" cy="754.37" r="6.52"/><circle class="cls-1" cx="526.76" cy="754.37" r="6.52"/><circle class="cls-1" cx="543.02" cy="754.37" r="6.52"/><circle class="cls-1" cx="6.52" cy="770.62" r="6.52"/><circle class="cls-1" cx="22.78" cy="770.62" r="6.52"/><circle class="cls-1" cx="347.93" cy="770.62" r="6.52"/><circle class="cls-1" cx="364.19" cy="770.62" r="6.52"/><circle class="cls-1" cx="380.44" cy="770.62" r="6.52"/><circle class="cls-1" cx="396.7" cy="770.62" r="6.52"/><circle class="cls-1" cx="412.96" cy="770.62" r="6.52"/><circle class="cls-1" cx="429.22" cy="770.62" r="6.52"/><circle class="cls-1" cx="445.47" cy="770.62" r="6.52"/><circle class="cls-1" cx="461.73" cy="770.62" r="6.52"/><circle class="cls-1" cx="477.99" cy="770.62" r="6.52"/><circle class="cls-1" cx="494.25" cy="770.62" r="6.52"/><circle class="cls-1" cx="510.5" cy="770.62" r="6.52"/><circle class="cls-1" cx="526.76" cy="770.62" r="6.52"/><circle class="cls-1" cx="543.02" cy="770.62" r="6.52"/><circle class="cls-1" cx="6.52" cy="786.88" r="6.52"/><circle class="cls-1" cx="315.41" cy="786.88" r="6.52"/><circle class="cls-1" cx="331.67" cy="786.88" r="6.52"/><circle class="cls-1" cx="347.93" cy="786.88" r="6.52"/><circle class="cls-1" cx="364.19" cy="786.88" r="6.52"/><circle class="cls-1" cx="380.44" cy="786.88" r="6.52"/><circle class="cls-1" cx="396.7" cy="786.88" r="6.52"/><circle class="cls-1" cx="412.96" cy="786.88" r="6.52"/><circle class="cls-1" cx="429.22" cy="786.88" r="6.52"/><circle class="cls-1" cx="445.47" cy="786.88" r="6.52"/><circle class="cls-1" cx="461.73" cy="786.88" r="6.52"/><circle class="cls-1" cx="477.99" cy="786.88" r="6.52"/><circle class="cls-1" cx="494.25" cy="786.88" r="6.52"/><circle class="cls-1" cx="510.5" cy="786.88" r="6.52"/><circle class="cls-1" cx="526.76" cy="786.88" r="6.52"/><circle class="cls-1" cx="543.02" cy="786.88" r="6.52"/><circle class="cls-1" cx="299.16" cy="803.14" r="6.52"/><circle class="cls-1" cx="315.41" cy="803.14" r="6.52"/><circle class="cls-1" cx="331.67" cy="803.14" r="6.52"/><circle class="cls-1" cx="347.93" cy="803.14" r="6.52"/><circle class="cls-1" cx="364.19" cy="803.14" r="6.52"/><circle class="cls-1" cx="396.7" cy="803.14" r="6.52"/><circle class="cls-1" cx="412.96" cy="803.14" r="6.52"/><circle class="cls-1" cx="429.22" cy="803.14" r="6.52"/><circle class="cls-1" cx="445.47" cy="803.14" r="6.52"/><circle class="cls-1" cx="461.73" cy="803.14" r="6.52"/><circle class="cls-1" cx="477.99" cy="803.14" r="6.52"/><circle class="cls-1" cx="494.25" cy="803.14" r="6.52"/><circle class="cls-1" cx="510.5" cy="803.14" r="6.52"/><circle class="cls-1" cx="526.76" cy="803.14" r="6.52"/><circle class="cls-1" cx="543.02" cy="803.14" r="6.52"/><circle class="cls-1" cx="559.28" cy="803.14" r="6.52"/><circle class="cls-1" cx="299.16" cy="819.4" r="6.52"/><circle class="cls-1" cx="315.41" cy="819.4" r="6.52"/><circle class="cls-1" cx="347.93" cy="819.4" r="6.52"/><circle class="cls-1" cx="380.44" cy="819.4" r="6.52"/><circle class="cls-1" cx="429.22" cy="819.4" r="6.52"/><circle class="cls-1" cx="445.47" cy="819.4" r="6.52"/><circle class="cls-1" cx="461.73" cy="819.4" r="6.52"/><circle class="cls-1" cx="477.99" cy="819.4" r="6.52"/><circle class="cls-1" cx="494.25" cy="819.4" r="6.52"/><circle class="cls-1" cx="510.5" cy="819.4" r="6.52"/><circle class="cls-1" cx="526.76" cy="819.4" r="6.52"/><circle class="cls-1" cx="543.02" cy="819.4" r="6.52"/><circle class="cls-1" cx="559.28" cy="819.4" r="6.52"/><circle class="cls-1" cx="282.9" cy="835.65" r="6.52"/><circle class="cls-1" cx="299.16" cy="835.65" r="6.52"/><circle class="cls-1" cx="412.96" cy="835.65" r="6.52"/><circle class="cls-1" cx="429.22" cy="835.65" r="6.52"/><circle class="cls-1" cx="445.47" cy="835.65" r="6.52"/><circle class="cls-1" cx="461.73" cy="835.65" r="6.52"/><circle class="cls-1" cx="477.99" cy="835.65" r="6.52"/><circle class="cls-1" cx="494.25" cy="835.65" r="6.52"/><circle class="cls-1" cx="510.5" cy="835.65" r="6.52"/><circle class="cls-1" cx="526.76" cy="835.65" r="6.52"/><circle class="cls-1" cx="543.02" cy="835.65" r="6.52"/><circle class="cls-1" cx="559.28" cy="835.65" r="6.52"/><circle class="cls-1" cx="299.16" cy="851.91" r="6.52"/><circle class="cls-1" cx="412.96" cy="851.91" r="6.52"/><circle class="cls-1" cx="429.22" cy="851.91" r="6.52"/><circle class="cls-1" cx="445.47" cy="851.91" r="6.52"/><circle class="cls-1" cx="461.73" cy="851.91" r="6.52"/><circle class="cls-1" cx="477.99" cy="851.91" r="6.52"/><circle class="cls-1" cx="494.25" cy="851.91" r="6.52"/><circle class="cls-1" cx="510.5" cy="851.91" r="6.52"/><circle class="cls-1" cx="526.76" cy="851.91" r="6.52"/><circle class="cls-1" cx="543.02" cy="851.91" r="6.52"/><circle class="cls-1" cx="266.64" cy="868.17" r="6.52"/><circle class="cls-1" cx="282.9" cy="868.17" r="6.52"/><circle class="cls-1" cx="299.16" cy="868.17" r="6.52"/><circle class="cls-1" cx="412.96" cy="868.17" r="6.52"/><circle class="cls-1" cx="429.22" cy="868.17" r="6.52"/><circle class="cls-1" cx="445.47" cy="868.17" r="6.52"/><circle class="cls-1" cx="461.73" cy="868.17" r="6.52"/><circle class="cls-1" cx="477.99" cy="868.17" r="6.52"/><circle class="cls-1" cx="494.25" cy="868.17" r="6.52"/><circle class="cls-1" cx="543.02" cy="868.17" r="6.52"/><circle class="cls-1" cx="201.61" cy="884.43" r="6.52"/><circle class="cls-1" cx="412.96" cy="884.43" r="6.52"/><circle class="cls-1" cx="429.22" cy="884.43" r="6.52"/><circle class="cls-1" cx="445.47" cy="884.43" r="6.52"/><circle class="cls-1" cx="461.73" cy="884.43" r="6.52"/><circle class="cls-1" cx="477.99" cy="884.43" r="6.52"/><circle class="cls-1" cx="494.25" cy="884.43" r="6.52"/><circle class="cls-1" cx="234.13" cy="900.68" r="6.52"/><circle class="cls-1" cx="250.38" cy="900.68" r="6.52"/><circle class="cls-1" cx="266.64" cy="900.68" r="6.52"/><circle class="cls-1" cx="282.9" cy="900.68" r="6.52"/><circle class="cls-1" cx="429.22" cy="900.68" r="6.52"/><circle class="cls-1" cx="445.47" cy="900.68" r="6.52"/><circle class="cls-1" cx="461.73" cy="900.68" r="6.52"/><circle class="cls-1" cx="477.99" cy="900.68" r="6.52"/><circle class="cls-1" cx="494.25" cy="900.68" r="6.52"/><circle class="cls-1" cx="510.5" cy="900.68" r="6.52"/><circle class="cls-1" cx="217.87" cy="916.94" r="6.52"/><circle class="cls-1" cx="234.13" cy="916.94" r="6.52"/><circle class="cls-1" cx="477.99" cy="916.94" r="6.52"/><circle class="cls-1" cx="494.25" cy="916.94" r="6.52"/><circle class="cls-1" cx="217.87" cy="933.2" r="6.52"/><circle class="cls-1" cx="494.25" cy="933.2" r="6.52"/><circle class="cls-1" cx="169.09" cy="949.46" r="6.52"/><circle class="cls-1" cx="185.35" cy="949.46" r="6.52"/></svg>