<?xml version="1.0" encoding="utf-8"?>
<!-- Generator: Adobe Illustrator 17.0.0, SVG Export Plug-In . SVG Version: 6.00 Build 0)  -->
<!DOCTYPE svg PUBLIC "-//W3C//DTD SVG 1.1//EN" "http://www.w3.org/Graphics/SVG/1.1/DTD/svg11.dtd">
<svg version="1.1" id="Layer_1" xmlns="http://www.w3.org/2000/svg" xmlns:xlink="http://www.w3.org/1999/xlink" x="0px" y="0px"
	 width="1280px" height="400px" viewBox="0 0 1280 400" enable-background="new 0 0 1280 400" xml:space="preserve">
<g>
	<g>
		<path fill="#292627" d="M96.726,201.156c0-23.688,7.438-43.286,22.325-58.802c15.094-15.512,34.065-23.27,56.917-23.27
			c22.846,0,41.714,7.758,56.602,23.27c15.094,15.516,22.641,35.114,22.641,58.802c0,23.897-7.547,43.499-22.641,58.802
			c-14.887,15.516-33.756,23.27-56.602,23.27c-22.852,0-41.823-7.754-56.917-23.27C104.164,244.446,96.726,224.848,96.726,201.156z
			 M125.655,201.156c0,16.561,4.82,29.979,14.465,40.249c9.639,10.275,21.588,15.405,35.848,15.405
			c14.254,0,26.202-5.131,35.848-15.405c9.639-10.27,14.465-23.688,14.465-40.249c0-16.352-4.826-29.663-14.465-39.938
			c-9.857-10.479-21.805-15.721-35.848-15.721c-14.047,0-25.998,5.242-35.848,15.721
			C130.475,171.492,125.655,184.804,125.655,201.156z"/>
		<path fill="#292627" d="M347.093,283.228c-22.852,0-41.823-7.754-56.917-23.27c-14.887-15.93-22.325-35.532-22.325-58.802
			c0-23.688,7.438-43.286,22.325-58.802c15.094-15.512,34.065-23.27,56.917-23.27c15.721,0,29.45,3.928,41.192,11.789
			c11.74,7.865,20.543,18.711,26.416,32.547l-26.416,11.008c-8.174-19.287-22.537-28.93-43.079-28.93
			c-13.207,0-24.635,5.344-34.276,16.037c-9.432,10.693-14.149,23.897-14.149,39.622c0,15.721,4.717,28.93,14.149,39.618
			c9.641,10.693,21.069,16.037,34.276,16.037c21.172,0,36.055-9.639,44.653-28.926l25.784,11.004
			c-5.66,13.836-14.518,24.686-26.571,32.547C377.015,279.296,363.021,283.228,347.093,283.228z"/>
		<path fill="#292627" d="M568.842,278.196h-34.905l-48.11-72.638l-23.586,23.27v49.368h-28.928V53.047h28.928v138.674l66.665-67.61
			h37.106v1.258l-60.061,59.749l62.89,91.818V278.196z"/>
		<path fill="#292627" d="M662.545,283.228c-11.322,0-21.649-2.414-30.975-7.234c-9.33-4.82-16.508-11.213-21.541-19.184h-1.256
			v21.385h-27.672V53.047h28.928v71.064l-1.256,21.385h1.256c5.033-7.967,12.211-14.356,21.541-19.184
			c9.326-4.82,19.653-7.229,30.975-7.229c20.332,0,37.522,7.967,51.569,23.897c14.465,16.143,21.698,35.532,21.698,58.175
			c0,22.852-7.234,42.245-21.698,58.171C700.067,275.261,682.877,283.228,662.545,283.228z M657.828,256.811
			c13.836,0,25.471-5.238,34.903-15.721c9.434-10.27,14.151-23.586,14.151-39.934c0-16.143-4.717-29.45-14.151-39.938
			c-9.432-10.479-21.067-15.721-34.903-15.721c-14.047,0-25.786,5.242-35.219,15.721c-9.227,10.488-13.836,23.795-13.836,39.938
			c0,16.348,4.608,29.77,13.836,40.249C632.042,251.68,643.781,256.811,657.828,256.811z"/>
		<path fill="#292627" d="M826.624,283.228c-22.641,0-41.303-7.754-55.973-23.27c-14.676-15.512-22.012-35.11-22.012-58.802
			c0-23.479,7.125-43.026,21.383-58.649c14.254-15.614,32.491-23.424,54.714-23.424c22.848,0,41.036,7.387,54.559,22.166
			c13.52,14.783,20.282,35.485,20.282,62.108l-0.316,3.143H778.199c0.416,15.094,5.449,27.254,15.094,36.475
			c9.639,9.23,21.17,13.836,34.59,13.836c18.444,0,32.909-9.221,43.395-27.672l25.784,12.582c-6.918,13-16.508,23.164-28.772,30.499
			S842.136,283.228,826.624,283.228z M780.4,182.603h88.361c-0.84-10.692-5.188-19.547-13.049-26.571
			c-7.863-7.025-18.397-10.535-31.604-10.535c-10.901,0-20.282,3.357-28.143,10.061C788.102,162.271,782.914,171.279,780.4,182.603z
			"/>
		<path fill="#292627" d="M1280,124.112l-96.537,222.005h-29.872l35.848-77.671l-63.52-144.334h31.444l45.911,110.691h0.629
			l44.653-110.691H1280z"/>
	</g>
	<g>
		<rect x="1.907" y="124.112" fill="#292627" width="31.829" height="154.084"/>
		<ellipse fill="#292627" cx="67.99" cy="144.281" rx="24.021" ry="22.876"/>
	</g>
	<g>
		<rect x="917.398" y="124.112" fill="#292627" width="31.829" height="154.084"/>
		<ellipse fill="#292627" cx="983.482" cy="144.281" rx="24.021" ry="22.876"/>
	</g>
	<g>
		<rect x="1026.07" y="124.112" fill="#292627" width="31.829" height="154.084"/>
		<ellipse fill="#292627" cx="1092.153" cy="144.281" rx="24.021" ry="22.876"/>
	</g>
</g>
</svg>
